  erDiagram
    "HOSPITAL" {
      int id PK
      int doctor_id PK, FK
      string address UK
      string name
      string phone_number
      string fax_number
    }
  </pre
>
<hr />

<pre class="mermaid">
  erDiagram
    CAR ||--o{ NAMED-DRIVER : allows
    CAR {
      string registrationNumber PK
      string make
      string model
      string[] parts
    }
    PERSON ||--o{ NAMED-DRIVER : is
    PERSON {
      string driversLicense PK "The license #"
      string(99) firstName "Only 99 characters are allowed"
      string lastName
      string phone UK
      int age
    }
    NAMED-DRIVER {
      string carRegistrationNumber PK, FK
      string driverLicence PK,FK
    }
    MANUFACTURER only one to zero or more CAR : makes
